<?xml version="1.0" standalone="no"?>
<!DOCTYPE svg PUBLIC "-//W3C//DTD SVG 20010904//EN"
 "http://www.w3.org/TR/2001/REC-SVG-20010904/DTD/svg10.dtd">
<svg version="1.0" xmlns="http://www.w3.org/2000/svg"
 width="672.000000pt" height="672.000000pt" viewBox="0 0 672.000000 672.000000"
 preserveAspectRatio="xMidYMid meet">
<metadata>
Created by potrace 1.14, written by Peter Selinger 2001-2017
</metadata>
<g transform="translate(0.000000,672.000000) scale(0.100000,-0.100000)"
fill="#000000" stroke="none">
<path d="M3229 6716 c-2 -2 -22 -7 -44 -11 -46 -8 -53 -9 -80 -19 -40 -15
-182 -88 -235 -121 -30 -19 -62 -38 -70 -42 -15 -8 -128 -73 -165 -96 -11 -7
-34 -22 -52 -34 -17 -13 -35 -23 -38 -23 -4 0 -79 -43 -166 -95 -88 -52 -163
-95 -168 -95 -5 0 -11 -4 -13 -8 -1 -5 -15 -15 -31 -23 -15 -8 -109 -62 -208
-121 -100 -60 -185 -108 -190 -108 -5 0 -9 -4 -9 -10 0 -5 -4 -10 -9 -10 -9 0
-118 -63 -138 -80 -7 -5 -15 -10 -17 -10 -5 0 -180 -100 -226 -130 -44 -27
-226 -136 -235 -139 -5 -2 -27 -15 -48 -28 -21 -13 -53 -32 -70 -42 -109 -62
-294 -172 -304 -181 -7 -5 -15 -10 -18 -10 -27 0 -205 -158 -205 -181 0 -4 -7
-14 -15 -23 -23 -23 -78 -147 -90 -203 -2 -10 -8 -38 -14 -63 -7 -30 -10 -528
-11 -1531 0 -1460 0 -1487 20 -1544 48 -138 111 -210 255 -291 28 -15 64 -36
80 -46 17 -10 37 -21 45 -25 8 -4 84 -47 169 -95 84 -48 157 -88 162 -88 5 0
9 -4 9 -9 0 -5 11 -12 25 -15 14 -4 25 -11 25 -16 0 -6 6 -10 14 -10 8 0 43
-17 78 -39 35 -21 88 -51 118 -67 30 -15 57 -30 60 -33 3 -4 14 -11 25 -17 96
-52 175 -97 310 -174 17 -9 57 -32 90 -50 33 -18 65 -36 70 -40 6 -4 35 -21
65 -37 30 -17 71 -39 90 -50 96 -55 512 -290 560 -316 30 -16 62 -36 71 -43 8
-8 19 -14 23 -14 6 0 89 -46 206 -115 94 -55 228 -114 290 -128 77 -17 220
-16 305 2 84 18 154 52 355 172 187 111 189 112 301 177 89 51 106 62 276 163
73 44 137 79 143 79 5 0 10 3 10 8 0 4 17 16 38 27 20 11 88 50 150 87 62 38
115 68 118 68 2 0 10 5 17 10 20 18 249 150 258 150 5 0 9 5 9 10 0 6 5 10 10
10 6 0 29 11 51 26 22 14 55 33 72 43 31 17 195 114 414 245 57 34 115 68 130
76 122 67 218 134 281 197 39 39 72 76 72 82 0 5 6 16 13 23 36 40 83 155 101
252 11 57 13 347 12 1476 -2 1518 1 1440 -52 1566 -21 51 -93 160 -134 204
-39 42 -161 140 -173 140 -5 0 -21 8 -35 18 -15 11 -56 35 -92 54 -36 20 -94
53 -130 73 -36 21 -85 49 -110 63 -25 14 -103 58 -173 98 -71 41 -130 74 -132
74 -3 0 -145 81 -175 100 -8 5 -31 17 -50 27 -19 9 -37 19 -40 22 -3 4 -21 14
-40 25 -93 49 -166 90 -178 99 -20 16 -95 57 -124 68 -16 6 -28 15 -28 20 0 5
-5 9 -10 9 -6 0 -73 35 -148 79 -75 43 -162 92 -192 109 -30 16 -84 46 -118
66 -35 20 -68 36 -73 36 -5 0 -9 4 -9 9 0 5 -9 13 -21 16 -11 4 -54 27 -95 51
-41 24 -77 44 -79 44 -3 0 -22 11 -43 23 -37 24 -116 69 -182 103 -19 11 -37
21 -40 25 -3 3 -21 12 -40 21 -31 14 -54 24 -135 53 -11 4 -29 9 -40 11 -31 6
-232 14 -236 10z m201 -2003 c24 -8 109 -52 140 -73 8 -6 49 -29 90 -51 168
-92 186 -102 201 -115 9 -8 19 -11 22 -7 4 3 7 1 7 -5 0 -7 4 -12 10 -12 5 0
68 -34 139 -75 71 -41 147 -84 168 -96 272 -150 309 -180 347 -273 21 -50 21
-65 20 -646 -1 -593 -1 -595 -23 -643 -32 -69 -90 -123 -191 -178 -25 -13 -51
-30 -58 -36 -7 -7 -24 -16 -38 -19 -13 -3 -24 -10 -24 -15 0 -5 -4 -9 -8 -9
-7 0 -264 -149 -288 -167 -12 -9 -68 -41 -101 -57 -13 -6 -23 -14 -23 -18 0
-5 -5 -8 -11 -8 -6 0 -51 -25 -101 -55 -49 -30 -91 -55 -93 -55 -2 0 -32 -17
-66 -38 -63 -38 -143 -74 -150 -68 -2 2 -31 6 -65 9 -61 6 -77 12 -224 97 -36
20 -86 49 -112 64 -138 76 -351 196 -368 206 -8 6 -35 21 -60 35 -25 14 -52
29 -60 35 -8 5 -76 43 -151 85 -148 82 -170 99 -196 148 -17 29 -18 80 -19
651 -2 680 -2 674 59 751 26 33 127 105 146 105 5 0 11 3 13 8 2 4 15 14 30
22 25 13 192 111 257 150 14 9 52 31 84 50 33 19 72 43 88 53 279 165 420 245
449 253 39 12 122 10 160 -3z"/>
</g>
</svg>
